<svg width="451" height="386" viewBox="0 0 451 386" fill="none" xmlns="http://www.w3.org/2000/svg">
<g filter="url(#filter0_i_38_902)">
<circle cx="223.457" cy="150" r="150" fill="url(#paint0_linear_38_902)"/>
</g>
<path d="M16.8599 248.146C86.8599 231.006 156.86 231.006 226.86 248.146C296.86 265.285 366.86 265.285 436.86 248.146" stroke="url(#paint1_linear_38_902)" stroke-width="27.7134" stroke-linecap="round"/>
<path d="M13.8599 304.854C83.8599 287.715 153.86 287.715 223.86 304.854C293.86 321.993 363.86 321.993 433.86 304.854" stroke="url(#paint2_linear_38_902)" stroke-width="27.7134" stroke-linecap="round"/>
<path d="M13.8599 358.854C83.8599 341.715 153.86 341.715 223.86 358.854C293.86 375.993 363.86 375.993 433.86 358.854" stroke="url(#paint3_linear_38_902)" stroke-width="27.7134" stroke-linecap="round"/>
<defs>
<filter id="filter0_i_38_902" x="73.4575" y="0" width="300" height="321.124" filterUnits="userSpaceOnUse" color-interpolation-filters="sRGB">
<feFlood flood-opacity="0" result="BackgroundImageFix"/>
<feBlend mode="normal" in="SourceGraphic" in2="BackgroundImageFix" result="shape"/>
<feColorMatrix in="SourceAlpha" type="matrix" values="0 0 0 0 0 0 0 0 0 0 0 0 0 0 0 0 0 0 127 0" result="hardAlpha"/>
<feOffset dy="21.1238"/>
<feGaussianBlur stdDeviation="36.9666"/>
<feComposite in2="hardAlpha" operator="arithmetic" k2="-1" k3="1"/>
<feColorMatrix type="matrix" values="0 0 0 0 1 0 0 0 0 1 0 0 0 0 1 0 0 0 1 0"/>
<feBlend mode="overlay" in2="shape" result="effect1_innerShadow_38_902"/>
</filter>
<linearGradient id="paint0_linear_38_902" x1="223.457" y1="0" x2="223.457" y2="300" gradientUnits="userSpaceOnUse">
<stop stop-color="#FFD358"/>
<stop offset="1" stop-color="#FA6C21"/>
</linearGradient>
<linearGradient id="paint1_linear_38_902" x1="-9.64008" y1="235" x2="420.36" y2="261" gradientUnits="userSpaceOnUse">
<stop stop-color="#F2F2F2"/>
<stop offset="1" stop-color="#CFCFCF"/>
</linearGradient>
<linearGradient id="paint2_linear_38_902" x1="-12.6401" y1="291.709" x2="417.36" y2="317.709" gradientUnits="userSpaceOnUse">
<stop stop-color="#F2F2F2"/>
<stop offset="1" stop-color="#CFCFCF"/>
</linearGradient>
<linearGradient id="paint3_linear_38_902" x1="-12.6401" y1="345.709" x2="417.36" y2="371.709" gradientUnits="userSpaceOnUse">
<stop stop-color="#F2F2F2"/>
<stop offset="1" stop-color="#CFCFCF"/>
</linearGradient>
</defs>
</svg>
